<?xml version="1.0" standalone="no"?>
<!DOCTYPE svg PUBLIC "-//W3C//DTD SVG 20010904//EN"
 "http://www.w3.org/TR/2001/REC-SVG-20010904/DTD/svg10.dtd">
<svg version="1.0" xmlns="http://www.w3.org/2000/svg"
 width="341.000000pt" height="168.000000pt" viewBox="0 0 341.000000 168.000000"
 preserveAspectRatio="xMidYMid meet">

<g transform="translate(0.000000,168.000000) scale(0.100000,-0.100000)"
fill="#000000" stroke="none">
<path d="M2292 1669 c-25 -9 -31 -56 -10 -77 34 -34 102 14 79 56 -13 24 -39
32 -69 21z"/>
<path d="M695 1630 c12 -23 15 -70 15 -240 0 -170 -3 -217 -15 -240 l-16 -30
66 0 66 0 -16 30 c-23 45 -21 205 4 246 25 41 82 67 148 67 104 0 137 -50 131
-204 -2 -78 -7 -101 -22 -118 l-19 -21 72 0 71 0 -14 23 c-9 14 -16 64 -19
144 -4 95 -9 130 -24 154 -31 54 -66 73 -142 77 -79 5 -128 -8 -172 -45 l-30
-26 3 107 3 106 -53 0 -53 0 16 -30z"/>
<path d="M330 1499 c-24 -11 -52 -27 -61 -35 -15 -14 -18 -12 -27 15 -10 28
-15 31 -50 31 l-39 0 19 -39 c17 -35 19 -58 16 -234 -3 -175 -5 -197 -22 -216
l-19 -21 72 0 72 0 -15 22 c-10 14 -16 44 -16 79 l0 56 49 -24 c111 -55 268
-18 318 76 32 61 32 151 0 212 -46 89 -190 127 -297 78z m183 -56 c90 -46 89
-210 -2 -257 -69 -36 -170 -28 -216 19 -55 54 -52 162 6 216 50 47 144 57 212
22z"/>
<path d="M1335 1505 c-48 -19 -103 -69 -121 -112 -22 -51 -18 -141 9 -188 68
-122 331 -130 420 -13 75 98 44 248 -61 300 -59 29 -186 35 -247 13z m201 -61
c75 -36 101 -151 48 -214 -39 -46 -80 -63 -150 -64 -109 0 -171 60 -162 156 9
89 70 138 171 138 33 0 74 -7 93 -16z"/>
<path d="M1880 1500 c-24 -12 -53 -28 -62 -37 -17 -15 -18 -14 -18 15 0 32 0
32 -51 32 l-50 0 20 -26 c19 -24 21 -40 21 -166 0 -105 -4 -146 -15 -168 l-16
-30 66 0 66 0 -16 30 c-23 45 -21 205 4 246 25 41 82 67 148 67 104 0 137 -50
131 -204 -2 -78 -7 -101 -22 -118 l-19 -21 72 0 71 0 -14 23 c-9 14 -16 66
-19 145 -7 134 -18 167 -70 206 -42 31 -165 34 -227 6z"/>
<path d="M2617 1505 c-22 -7 -50 -23 -63 -36 l-24 -22 0 31 c0 32 -1 32 -50
32 l-50 0 20 -32 c17 -29 20 -51 20 -163 0 -96 -4 -138 -15 -159 -8 -15 -15
-30 -15 -32 0 -2 30 -4 66 -4 l65 0 -15 22 c-22 31 -22 207 -1 248 24 46 68
65 153 63 63 -1 72 1 72 17 0 10 3 25 6 34 5 14 -4 16 -62 16 -38 -1 -86 -7
-107 -15z"/>
<path d="M2930 1511 c-129 -40 -194 -171 -141 -286 36 -79 105 -115 220 -115
89 0 135 14 183 58 50 45 68 85 68 150 0 91 -59 167 -149 192 -41 11 -144 12
-181 1z m191 -74 c96 -64 86 -203 -18 -252 -45 -22 -137 -24 -173 -5 -94 48
-115 163 -43 232 38 37 68 47 139 47 48 1 69 -4 95 -22z"/>
<path d="M2272 1470 c18 -35 20 -56 16 -174 -2 -115 -6 -137 -22 -155 l-19
-21 72 0 71 0 -15 24 c-13 20 -15 53 -13 195 l3 171 -56 0 -56 0 19 -40z"/>
<path d="M32 773 l3 -68 1673 -3 1672 -2 0 -55 c0 -32 4 -55 10 -55 7 0 10 25
8 68 l-3 67 -1672 3 -1673 2 0 55 c0 32 -4 55 -10 55 -7 0 -10 -25 -8 -67z"/>
<path d="M594 426 c-46 -20 -74 -62 -74 -110 1 -65 34 -94 140 -121 70 -18
100 -38 100 -65 0 -64 -150 -60 -166 4 -5 23 -11 26 -48 26 l-42 0 -49 135
-50 136 -49 -3 -50 -3 -77 -202 -77 -203 47 0 c46 0 47 1 62 43 l16 42 78 0
78 0 15 -42 c14 -43 14 -43 63 -43 38 0 47 3 43 15 -5 13 -2 13 24 0 72 -36
174 -27 230 20 27 22 31 23 43 9 40 -49 186 -68 242 -31 23 15 27 15 27 2 0
-11 11 -15 44 -15 42 0 44 1 60 45 l18 45 78 0 77 0 13 -45 13 -45 48 0 48 0
-30 83 c-16 45 -51 137 -76 204 l-46 123 -48 0 -48 0 -20 -54 c-11 -29 -34
-91 -52 -136 l-32 -83 -12 31 c-17 40 -44 56 -134 81 -101 28 -122 49 -85 85
31 32 124 9 124 -30 0 -10 12 -14 45 -14 52 0 58 14 25 68 -51 83 -229 83
-279 1 l-18 -29 -22 31 c-13 17 -38 37 -57 45 -42 18 -119 17 -160 0z m138
-86 c17 -24 29 -30 58 -30 32 0 38 -5 53 -35 18 -37 48 -57 117 -74 109 -28
139 -57 101 -95 -43 -43 -151 -18 -151 36 0 13 -7 18 -29 18 -22 0 -33 7 -43
27 -20 40 -55 61 -141 84 -86 24 -106 42 -81 77 11 16 26 22 54 22 32 0 44 -6
62 -30z m-353 -82 c12 -34 21 -66 21 -70 0 -4 -20 -8 -45 -8 -32 0 -45 4 -45
14 0 14 40 126 45 126 2 0 13 -28 24 -62z m964 2 c8 -25 18 -53 22 -62 6 -16
1 -18 -44 -18 -28 0 -51 3 -51 8 0 19 45 130 51 124 3 -4 13 -27 22 -52z"/>
<path d="M2652 423 c-94 -46 -137 -170 -97 -282 l14 -41 -74 0 -75 0 0 165 0
165 -45 0 -45 0 0 -205 0 -205 130 0 130 0 0 26 0 25 30 -21 c72 -51 185 -48
251 7 105 89 88 297 -30 360 -53 28 -139 31 -189 6z m145 -75 c70 -34 70 -194
1 -242 -29 -21 -87 -20 -117 0 -47 33 -65 122 -37 187 29 70 83 89 153 55z"/>
<path d="M1735 413 c-28 -70 -145 -384 -145 -388 0 -3 20 -5 44 -5 42 0 44 1
60 45 l18 45 78 0 77 0 13 -45 13 -45 151 0 c173 0 215 9 250 51 43 50 27 148
-26 165 -19 6 -20 8 -7 18 44 32 51 101 15 143 -24 28 -25 28 -160 31 l-136 4
0 -184 c-1 -213 3 -214 -85 25 l-58 157 -48 0 c-35 0 -49 -4 -54 -17z m463
-65 c7 -7 12 -21 12 -33 0 -34 -20 -45 -82 -45 l-58 0 0 45 0 45 58 0 c32 0
63 -5 70 -12z m-380 -105 l21 -63 -50 0 c-27 0 -49 3 -49 8 0 19 45 130 51
124 4 -4 16 -35 27 -69z m396 -59 c9 -8 16 -26 16 -39 0 -36 -36 -55 -102 -55
l-58 0 0 55 0 55 64 0 c45 0 69 -5 80 -16z"/>
<path d="M2883 423 c3 -5 37 -61 76 -125 l71 -117 0 -80 0 -81 45 0 45 0 0 80
0 79 74 123 75 123 -41 3 c-22 2 -46 1 -53 -2 -7 -2 -29 -34 -49 -70 -20 -36
-40 -68 -45 -71 -5 -3 -29 29 -53 70 l-43 75 -53 0 c-29 0 -51 -3 -49 -7z"/>
</g>
</svg>
